<svg width="432" height="432" viewBox="0 0 432 432" fill="none" xmlns="http://www.w3.org/2000/svg">
  <!-- Foreground icon for adaptive icon (centered in safe area) -->
  <g transform="translate(216, 216)">
    <!-- Letter S -->
    <path d="M-60 -75C-60 -91.569 -46.569 -105 -30 -105H30C46.569 -105 60 -91.569 60 -75V-45C60 -28.431 46.569 -15 30 -15C13.431 -15 0 -28.431 0 -45V-75H-30V-15H30C46.569 -15 60 -1.569 60 15V45C60 61.569 46.569 75 30 75H-30C-46.569 75 -60 61.569 -60 45V15C-60 -1.569 -46.569 -15 -30 -15C-13.431 -15 0 -1.569 0 15V45H30V15H-30C-46.569 15 -60 1.569 -60 -15V-75Z" fill="url(#foregroundGradient)"/>
    
    <!-- Letter I -->
    <rect x="-7.5" y="90" width="15" height="60" rx="7.5" fill="url(#foregroundGradient)"/>
    
    <!-- Subtle accent dots -->
    <circle cx="-90" cy="-90" r="8" fill="url(#accentGradient)" opacity="0.6"/>
    <circle cx="90" cy="-90" r="6" fill="url(#accentGradient)" opacity="0.7"/>
    <circle cx="90" cy="90" r="10" fill="url(#accentGradient)" opacity="0.5"/>
    <circle cx="-90" cy="90" r="7" fill="url(#accentGradient)" opacity="0.65"/>
  </g>
  
  <!-- Gradient definitions -->
  <defs>
    <linearGradient id="foregroundGradient" x1="0%" y1="0%" x2="100%" y2="100%">
      <stop offset="0%" style="stop-color:#1E40AF;stop-opacity:1" />
      <stop offset="100%" style="stop-color:#1E3A8A;stop-opacity:1" />
    </linearGradient>
    <linearGradient id="accentGradient" x1="0%" y1="0%" x2="100%" y2="100%">
      <stop offset="0%" style="stop-color:#60A5FA;stop-opacity:1" />
      <stop offset="100%" style="stop-color:#3B82F6;stop-opacity:1" />
    </linearGradient>
  </defs>
</svg>