<svg width="200" height="200" viewBox="0 0 200 200" fill="none" xmlns="http://www.w3.org/2000/svg">
  <!-- Simple, clean splash icon -->
  <g transform="translate(100, 100)">
    <!-- Letter S -->
    <path d="M-30 -37.5C-30 -45.784 -23.284 -52.5 -15 -52.5H15C23.284 -52.5 30 -45.784 30 -37.5V-22.5C30 -14.216 23.284 -7.5 15 -7.5C6.716 -7.5 0 -14.216 0 -22.5V-37.5H-15V-7.5H15C23.284 -7.5 30 -0.784 30 7.5V22.5C30 30.784 23.284 37.5 15 37.5H-15C-23.284 37.5 -30 30.784 -30 22.5V7.5C-30 -0.784 -23.284 -7.5 -15 -7.5C-6.716 -7.5 0 -0.784 0 7.5V22.5H15V7.5H-15C-23.284 7.5 -30 0.784 -30 -7.5V-37.5Z" fill="url(#splashGradient)"/>
    
    <!-- Letter I -->
    <rect x="-3.75" y="45" width="7.5" height="30" rx="3.75" fill="url(#splashGradient)"/>
  </g>
  
  <!-- Gradient definition -->
  <defs>
    <linearGradient id="splashGradient" x1="0%" y1="0%" x2="100%" y2="100%">
      <stop offset="0%" style="stop-color:#3B82F6;stop-opacity:1" />
      <stop offset="100%" style="stop-color:#1E40AF;stop-opacity:1" />
    </linearGradient>
  </defs>
</svg>