<svg width="32" height="32" viewBox="0 0 32 32" fill="none" xmlns="http://www.w3.org/2000/svg">
  <!-- Background circle -->
  <circle cx="16" cy="16" r="16" fill="url(#gradient)"/>
  
  <!-- Letter S -->
  <path d="M12 10C12 8.89543 12.8954 8 14 8H18C19.1046 8 20 8.89543 20 10V11C20 11.5523 19.5523 12 19 12C18.4477 12 18 11.5523 18 11V10H14V12H18C19.1046 12 20 12.8954 20 14V16C20 17.1046 19.1046 18 18 18H14C12.8954 18 12 17.1046 12 16V15C12 14.4477 12.4477 14 13 14C13.5523 14 14 14.4477 14 15V16H18V14H14C12.8954 14 12 13.1046 12 12V10Z" fill="white"/>
  
  <!-- Letter I -->
  <path d="M10 20C9.44772 20 9 20.4477 9 21V23C9 23.5523 9.44772 24 10 24H22C22.5523 24 23 23.5523 23 23V21C23 20.4477 22.5523 20 22 20H19V22H13V20H10Z" fill="white"/>
  
  <!-- Gradient definition -->
  <defs>
    <linearGradient id="gradient" x1="0%" y1="0%" x2="100%" y2="100%">
      <stop offset="0%" style="stop-color:#3B82F6;stop-opacity:1" />
      <stop offset="100%" style="stop-color:#1E40AF;stop-opacity:1" />
    </linearGradient>
  </defs>
</svg>