<svg width="80" height="80" viewBox="0 0 80 80" xmlns="http://www.w3.org/2000/svg">
  <defs>
    <linearGradient id="bg2" x1="0%" y1="0%" x2="100%" y2="100%">
      <stop offset="0%" style="stop-color:#11998e;stop-opacity:1" />
      <stop offset="100%" style="stop-color:#38ef7d;stop-opacity:1" />
    </linearGradient>
  </defs>
  
  <!-- Background circle -->
  <circle cx="40" cy="40" r="40" fill="url(#bg2)"/>
  
  <!-- Face -->
  <circle cx="40" cy="32" r="12" fill="#d4a574"/>
  
  <!-- Hair -->
  <path d="M28 24 Q40 16 52 24 Q52 28 50 30 Q46 26 40 26 Q34 26 30 30 Q28 28 28 24" fill="#2c1810"/>
  
  <!-- Eyes -->
  <circle cx="36" cy="30" r="1.5" fill="#333"/>
  <circle cx="44" cy="30" r="1.5" fill="#333"/>
  
  <!-- Nose -->
  <circle cx="40" cy="33" r="0.8" fill="#c49660"/>
  
  <!-- Mouth -->
  <path d="M37 36 Q40 38 43 36" stroke="#333" stroke-width="1" fill="none"/>
  
  <!-- Body/Shirt -->
  <path d="M25 55 Q25 48 30 45 Q35 42 40 42 Q45 42 50 45 Q55 48 55 55 L55 80 L25 80 Z" fill="#e74c3c"/>
  
  <!-- Collar -->
  <path d="M35 45 Q40 43 45 45 L45 50 Q40 48 35 50 Z" fill="#ffffff"/>
</svg>