<svg width="80" height="80" viewBox="0 0 80 80" xmlns="http://www.w3.org/2000/svg">
  <defs>
    <linearGradient id="bg3" x1="0%" y1="0%" x2="100%" y2="100%">
      <stop offset="0%" style="stop-color:#ff9a9e;stop-opacity:1" />
      <stop offset="100%" style="stop-color:#fecfef;stop-opacity:1" />
    </linearGradient>
  </defs>
  
  <!-- Background circle -->
  <circle cx="40" cy="40" r="40" fill="url(#bg3)"/>
  
  <!-- Face -->
  <circle cx="40" cy="32" r="12" fill="#fdbcb4"/>
  
  <!-- Hair -->
  <path d="M28 26 Q40 20 52 26 Q52 32 48 34 Q44 30 40 30 Q36 30 32 34 Q28 32 28 26" fill="#ffd700"/>
  
  <!-- Eyes -->
  <circle cx="36" cy="30" r="1.5" fill="#333"/>
  <circle cx="44" cy="30" r="1.5" fill="#333"/>
  
  <!-- Nose -->
  <circle cx="40" cy="33" r="0.8" fill="#f4a688"/>
  
  <!-- Mouth -->
  <path d="M37 36 Q40 38 43 36" stroke="#333" stroke-width="1" fill="none"/>
  
  <!-- Body/Shirt -->
  <path d="M25 55 Q25 48 30 45 Q35 42 40 42 Q45 42 50 45 Q55 48 55 55 L55 80 L25 80 Z" fill="#9b59b6"/>
  
  <!-- Collar -->
  <path d="M35 45 Q40 43 45 45 L45 50 Q40 48 35 50 Z" fill="#ffffff"/>
</svg>