<svg width="1200" height="800" viewBox="0 0 1200 800" fill="none" xmlns="http://www.w3.org/2000/svg">
  <!-- Professional work/business background -->
  <defs>
    <linearGradient id="workGradient" x1="0%" y1="0%" x2="100%" y2="100%">
      <stop offset="0%" style="stop-color:#059669;stop-opacity:0.1" />
      <stop offset="100%" style="stop-color:#10B981;stop-opacity:0.05" />
    </linearGradient>
  </defs>
  
  <!-- Background -->
  <rect width="1200" height="800" fill="url(#workGradient)"/>
  
  <!-- Office buildings/skyscrapers -->
  <rect x="80" y="300" width="60" height="400" rx="4" fill="white" opacity="0.08"/>
  <rect x="160" y="250" width="80" height="450" rx="4" fill="white" opacity="0.06"/>
  <rect x="260" y="280" width="70" height="420" rx="4" fill="white" opacity="0.07"/>
  <rect x="350" y="200" width="90" height="500" rx="4" fill="white" opacity="0.05"/>
  
  <!-- Office windows pattern -->
  <rect x="90" y="320" width="8" height="8" fill="white" opacity="0.1"/>
  <rect x="110" y="320" width="8" height="8" fill="white" opacity="0.08"/>
  <rect x="90" y="340" width="8" height="8" fill="white" opacity="0.09"/>
  <rect x="110" y="340" width="8" height="8" fill="white" opacity="0.07"/>
  
  <!-- Briefcase -->
  <rect x="600" y="450" width="80" height="60" rx="8" fill="white" opacity="0.08"/>
  <rect x="630" y="440" width="20" height="10" rx="2" fill="white" opacity="0.1"/>
  
  <!-- Business chart/graph -->
  <polyline points="750,400 780,350 810,380 840,320 870,340" stroke="white" stroke-width="3" opacity="0.06" fill="none"/>
  <circle cx="750" cy="400" r="4" fill="white" opacity="0.08"/>
  <circle cx="780" cy="350" r="4" fill="white" opacity="0.08"/>
  <circle cx="810" cy="380" r="4" fill="white" opacity="0.08"/>
  <circle cx="840" cy="320" r="4" fill="white" opacity="0.08"/>
  <circle cx="870" cy="340" r="4" fill="white" opacity="0.08"/>
  
  <!-- Dollar sign -->
  <path d="M1000 250 Q990 240 1000 230 Q1010 240 1000 250 Q990 260 1000 270 Q1010 260 1000 250" fill="white" opacity="0.06"/>
  <line x1="1000" y1="220" x2="1000" y2="280" stroke="white" stroke-width="2" opacity="0.06"/>
  
  <!-- Handshake representation -->
  <ellipse cx="500" cy="200" rx="40" ry="20" fill="white" opacity="0.05"/>
  <ellipse cx="540" cy="200" rx="40" ry="20" fill="white" opacity="0.05"/>
  
  <!-- Decorative elements -->
  <circle cx="120" cy="100" r="6" fill="white" opacity="0.08"/>
  <circle cx="300" cy="80" r="8" fill="white" opacity="0.06"/>
  <circle cx="650" cy="150" r="10" fill="white" opacity="0.07"/>
  <circle cx="900" cy="120" r="7" fill="white" opacity="0.09"/>
  <circle cx="1100" cy="400" r="12" fill="white" opacity="0.05"/>
  <circle cx="150" cy="650" r="9" fill="white" opacity="0.07"/>
</svg>